<svg viewBox="0 0 1080 1080" width="1080" height="1080" xmlns="http://www.w3.org/2000/svg">
  <defs>
    <linearGradient id="g05" x1="0" y1="0" x2="1" y2="1">
      <stop offset="0%" stop-color="#F2EDE3"/>
      <stop offset="100%" stop-color="#E5DCC8"/>
    </linearGradient>
  </defs>
  <rect width="1080" height="1080" fill="url(#g05)"/>
  <g stroke="#1A1A1A" stroke-width="0.5" opacity="0.07">
    <line x1="360" y1="0" x2="360" y2="1080"/>
    <line x1="720" y1="0" x2="720" y2="1080"/>
    <line x1="0" y1="360" x2="1080" y2="360"/>
    <line x1="0" y1="720" x2="1080" y2="720"/>
  </g>
  <rect x="0" y="0" width="8" height="1080" fill="#1A1A1A" opacity="0.9"/>
  <rect x="0" y="0" width="1080" height="8" fill="#1A1A1A" opacity="0.9"/>
  <rect x="1072" y="0" width="8" height="1080" fill="#1A1A1A" opacity="0.9"/>
  <rect x="0" y="1072" width="1080" height="8" fill="#1A1A1A" opacity="0.9"/>
  <rect x="8" y="8" width="200" height="8" fill="#C8A96E"/>
  <rect x="8" y="8" width="8" height="200" fill="#C8A96E"/>
  <rect x="872" y="1064" width="200" height="8" fill="#C8A96E"/>
  <rect x="1064" y="872" width="8" height="200" fill="#C8A96E"/>
  <line x1="520" y1="540" x2="560" y2="540" stroke="#C8A96E" stroke-width="2" opacity="0.7"/>
  <line x1="540" y1="520" x2="540" y2="560" stroke="#C8A96E" stroke-width="2" opacity="0.7"/>
</svg>
