<svg viewBox="0 0 1080 1080" width="1080" height="1080" xmlns="http://www.w3.org/2000/svg">
  <defs>
    <linearGradient id="bg2" x1="0" y1="0" x2="0" y2="1">
      <stop offset="0%" stop-color="#0A0C1A"/>
      <stop offset="100%" stop-color="#151A30"/>
    </linearGradient>
    <radialGradient id="centerGlow" cx="0.5" cy="0.5" r="0.5">
      <stop offset="0%" stop-color="#C8A96E" stop-opacity="0.08"/>
      <stop offset="100%" stop-color="#C8A96E" stop-opacity="0"/>
    </radialGradient>
  </defs>

  <rect width="1080" height="1080" fill="url(#bg2)"/>
  <rect width="1080" height="1080" fill="url(#centerGlow)"/>

  <!-- Outer frame -->
  <rect x="50" y="50" width="980" height="980" fill="none" stroke="#C8A96E" stroke-width="0.8" opacity="0.3"/>
  <rect x="64" y="64" width="952" height="952" fill="none" stroke="#C8A96E" stroke-width="0.4" opacity="0.15"/>
  <!-- Corner marks -->
  <g stroke="#C8A96E" stroke-width="1.2" fill="none" opacity="0.6">
    <path d="M 50 110 L 50 50 L 110 50"/>
    <path d="M 970 50 L 1030 50 L 1030 110"/>
    <path d="M 50 970 L 50 1030 L 110 1030"/>
    <path d="M 1030 970 L 1030 1030 L 970 1030"/>
  </g>

  <!-- Stars -->
  <g fill="white" opacity="0.6">
    <circle cx="150" cy="120" r="1.2"/><circle cx="900" cy="90" r="1"/><circle cx="600" cy="80" r="0.8"/>
    <circle cx="980" cy="200" r="1.3"/><circle cx="80" cy="300" r="0.9"/><circle cx="750" cy="160" r="1.1"/>
  </g>

  <!-- Logo mark top center -->
  <text x="540" y="148" font-family="DejaVu Sans, sans-serif" font-size="28" font-weight="bold" fill="#C8A96E" text-anchor="middle" letter-spacing="10">HACOS</text>
  <text x="540" y="186" font-family="DejaVu Sans, sans-serif" font-size="16" fill="#888" text-anchor="middle" letter-spacing="8">NIGHT CLUB</text>
  <line x1="340" y1="200" x2="480" y2="200" stroke="#C8A96E" stroke-width="0.8" opacity="0.4"/>
  <circle cx="540" cy="200" r="3" fill="#C8A96E" opacity="0.5"/>
  <line x1="600" y1="200" x2="740" y2="200" stroke="#C8A96E" stroke-width="0.8" opacity="0.4"/>

  <!-- Date block -->
  <text x="540" y="296" font-family="DejaVu Sans, sans-serif" font-size="22" fill="#888" text-anchor="middle" letter-spacing="4">5.18 MON</text>
  <text x="540" y="368" font-family="IPAGothic, IPAゴシック, sans-serif" font-size="80" font-weight="bold" fill="white" text-anchor="middle">17:00</text>
  <text x="540" y="418" font-family="IPAGothic, IPAゴシック, sans-serif" font-size="28" fill="#C8A96E" text-anchor="middle" opacity="0.8">〜 22:00（L.O. 21:30）</text>

  <line x1="200" y1="456" x2="880" y2="456" stroke="#C8A96E" stroke-width="0.7" opacity="0.2"/>

  <!-- Program grid -->
  <g font-family="IPAGothic, IPAゴシック, sans-serif" text-anchor="middle">
    <!-- Row 1 -->
    <rect x="128" y="480" width="196" height="120" rx="6" fill="#C8A96E" fill-opacity="0.06" stroke="#C8A96E" stroke-width="0.6" stroke-opacity="0.3"/>
    <text x="226" y="530" font-size="32" fill="white">🏃</text>
    <text x="226" y="572" font-size="20" fill="white" opacity="0.8">Night Run</text>

    <rect x="344" y="480" width="196" height="120" rx="6" fill="#C8A96E" fill-opacity="0.06" stroke="#C8A96E" stroke-width="0.6" stroke-opacity="0.3"/>
    <text x="442" y="530" font-size="32" fill="white">🔥</text>
    <text x="442" y="572" font-size="20" fill="white" opacity="0.8">BBQ</text>

    <rect x="560" y="480" width="196" height="120" rx="6" fill="#C8A96E" fill-opacity="0.06" stroke="#C8A96E" stroke-width="0.6" stroke-opacity="0.3"/>
    <text x="658" y="530" font-size="32" fill="white">🪨</text>
    <text x="658" y="572" font-size="20" fill="white" opacity="0.8">Sauna</text>

    <rect x="776" y="480" width="176" height="120" rx="6" fill="#C8A96E" fill-opacity="0.06" stroke="#C8A96E" stroke-width="0.6" stroke-opacity="0.3"/>
    <text x="864" y="530" font-size="32" fill="white">🧘</text>
    <text x="864" y="572" font-size="20" fill="white" opacity="0.8">Yoga</text>

    <!-- Row 2 -->
    <rect x="128" y="622" width="196" height="120" rx="6" fill="#C8A96E" fill-opacity="0.06" stroke="#C8A96E" stroke-width="0.6" stroke-opacity="0.3"/>
    <text x="226" y="672" font-size="32" fill="white">🏋️</text>
    <text x="226" y="714" font-size="20" fill="white" opacity="0.8">Workout</text>

    <rect x="344" y="622" width="196" height="120" rx="6" fill="#C8A96E" fill-opacity="0.06" stroke="#C8A96E" stroke-width="0.6" stroke-opacity="0.3"/>
    <text x="442" y="672" font-size="32" fill="white">🤸</text>
    <text x="442" y="714" font-size="20" fill="white" opacity="0.8">Pilates</text>

    <rect x="560" y="622" width="196" height="120" rx="6" fill="#C8A96E" fill-opacity="0.06" stroke="#C8A96E" stroke-width="0.6" stroke-opacity="0.3"/>
    <text x="658" y="672" font-size="32" fill="white">🏓</text>
    <text x="658" y="714" font-size="20" fill="white" opacity="0.8">Pickleball</text>

    <rect x="776" y="622" width="176" height="120" rx="6" fill="#C8A96E" fill-opacity="0.06" stroke="#C8A96E" stroke-width="0.6" stroke-opacity="0.3"/>
    <text x="864" y="672" font-size="32" fill="white">🎵</text>
    <text x="864" y="714" font-size="20" fill="white" opacity="0.8">Music</text>
  </g>

  <line x1="200" y1="775" x2="880" y2="775" stroke="#C8A96E" stroke-width="0.7" opacity="0.2"/>

  <!-- Price -->
  <text x="540" y="840" font-family="IPAGothic, IPAゴシック, sans-serif" font-size="36" font-weight="bold" fill="#C8A96E" text-anchor="middle">¥5,000</text>
  <text x="540" y="884" font-family="IPAGothic, IPAゴシック, sans-serif" font-size="22" fill="white" text-anchor="middle" opacity="0.55">食事付きビュッフェスタイル ／ 完全予約制</text>

  <!-- Bottom -->
  <text x="540" y="970" font-family="IPAGothic, IPAゴシック, sans-serif" font-size="22" fill="white" text-anchor="middle" opacity="0.4">予約はプロフィールのリンクから</text>
</svg>
