<svg viewBox="0 0 1080 1080" width="1080" height="1080" xmlns="http://www.w3.org/2000/svg">
  <defs>
    <linearGradient id="g05" x1="0" y1="0" x2="1" y2="1">
      <stop offset="0%" stop-color="#F2EDE3"/>
      <stop offset="100%" stop-color="#E5DCC8"/>
    </linearGradient>
  </defs>

  <!-- Background -->
  <rect width="1080" height="1080" fill="url(#g05)"/>
  <g stroke="#1A1A1A" stroke-width="0.5" opacity="0.06">
    <line x1="360" y1="0" x2="360" y2="1080"/>
    <line x1="720" y1="0" x2="720" y2="1080"/>
    <line x1="0" y1="360" x2="1080" y2="360"/>
    <line x1="0" y1="720" x2="1080" y2="720"/>
  </g>
  <rect x="0" y="0" width="8" height="1080" fill="#1A1A1A" opacity="0.9"/>
  <rect x="0" y="0" width="1080" height="8" fill="#1A1A1A" opacity="0.9"/>
  <rect x="1072" y="0" width="8" height="1080" fill="#1A1A1A" opacity="0.9"/>
  <rect x="0" y="1072" width="1080" height="8" fill="#1A1A1A" opacity="0.9"/>
  <rect x="8" y="8" width="200" height="8" fill="#C8A96E"/>
  <rect x="8" y="8" width="8" height="200" fill="#C8A96E"/>
  <rect x="872" y="1064" width="200" height="8" fill="#C8A96E"/>
  <rect x="1064" y="872" width="8" height="200" fill="#C8A96E"/>

  <!-- Large HMC wordmark -->
  <text x="540" y="340" font-family="DejaVu Serif, serif" font-size="200" font-weight="bold" fill="#1A1A1A" text-anchor="middle" opacity="0.9" letter-spacing="-8">HMC</text>

  <!-- Divider line with diamonds -->
  <line x1="100" y1="380" x2="460" y2="380" stroke="#1A1A1A" stroke-width="1" opacity="0.3"/>
  <polygon points="540,368 556,380 540,392 524,380" fill="#C8A96E" opacity="0.8"/>
  <line x1="620" y1="380" x2="980" y2="380" stroke="#1A1A1A" stroke-width="1" opacity="0.3"/>

  <!-- Brand name -->
  <text x="540" y="436" font-family="DejaVu Sans, sans-serif" font-size="22" fill="#1A1A1A" text-anchor="middle" letter-spacing="8" opacity="0.7">HEALTHY MORNING CLUB</text>

  <!-- Tagline Japanese -->
  <text x="540" y="580" font-family="IPAGothic, IPAゴシック, sans-serif" font-size="36" fill="#1A1A1A" text-anchor="middle" opacity="0.85">新しい朝の、大人の社交場。</text>

  <!-- 4 pillars -->
  <line x1="100" y1="660" x2="980" y2="660" stroke="#1A1A1A" stroke-width="0.6" opacity="0.15"/>

  <text x="195" y="720" font-family="IPAGothic, IPAゴシック, sans-serif" font-size="21" fill="#555" text-anchor="middle">ご褒美ヘルシー</text>
  <text x="390" y="720" font-family="IPAGothic, IPAゴシック, sans-serif" font-size="21" fill="#555" text-anchor="middle">感覚のコントラスト</text>
  <text x="660" y="720" font-family="IPAGothic, IPAゴシック, sans-serif" font-size="21" fill="#555" text-anchor="middle">ムード・チューニング</text>
  <text x="880" y="720" font-family="IPAGothic, IPAゴシック, sans-serif" font-size="21" fill="#555" text-anchor="middle">選択からの解放</text>

  <!-- Vertical separators -->
  <line x1="295" y1="675" x2="295" y2="740" stroke="#C8A96E" stroke-width="0.8" opacity="0.4"/>
  <line x1="525" y1="675" x2="525" y2="740" stroke="#C8A96E" stroke-width="0.8" opacity="0.4"/>
  <line x1="775" y1="675" x2="775" y2="740" stroke="#C8A96E" stroke-width="0.8" opacity="0.4"/>

  <line x1="100" y1="756" x2="980" y2="756" stroke="#1A1A1A" stroke-width="0.6" opacity="0.15"/>

  <!-- Event detail bottom -->
  <text x="540" y="860" font-family="IPAGothic, IPAゴシック, sans-serif" font-size="28" fill="#1A1A1A" text-anchor="middle" opacity="0.8">5月18日（月）07:00 スタート</text>
  <text x="540" y="910" font-family="IPAGothic, IPAゴシック, sans-serif" font-size="24" fill="#888" text-anchor="middle">毎週月曜開催 · 定員20名 · ¥5,000（食事込み）</text>
</svg>
